<svg width="263" height="354" viewBox="0 0 263 354" fill="none" xmlns="http://www.w3.org/2000/svg">
<path d="M88.55 176.798C88.55 103.211 110.734 40.1753 142.117 13.527V0L171.065 0.270537C172.553 0.135266 174.041 0 175.529 0C223.685 0 262.643 79.1332 262.643 176.798C262.643 274.464 223.685 353.597 175.529 353.597C174.041 353.597 172.553 353.462 171.065 353.326L142.117 353.597V340.07C110.734 313.422 88.55 250.385 88.55 176.798Z" fill="#8DB9FF"/>
<path d="M142.252 353.597C94.1405 353.597 55.1382 274.441 55.1382 176.798C55.1382 79.1553 94.1405 0 142.252 0C190.364 0 229.366 79.1553 229.366 176.798C229.366 274.441 190.364 353.597 142.252 353.597Z" fill="#126DFF"/>
<path d="M139.141 308.146C105.074 308.146 77.4578 249.34 77.4578 176.798C77.4578 104.257 105.074 45.4509 139.141 45.4509C173.208 45.4509 200.824 104.257 200.824 176.798C200.824 249.34 173.208 308.146 139.141 308.146Z" fill="white"/>
<path d="M136.165 261.072C116.069 261.072 99.7774 223.341 99.7774 176.798C99.7774 130.255 116.069 92.5249 136.165 92.5249C156.262 92.5249 172.553 130.255 172.553 176.798C172.553 223.341 156.262 261.072 136.165 261.072Z" fill="#126DFF"/>
<path d="M134.407 211.833C127.085 211.833 121.15 196.148 121.15 176.798C121.15 157.449 127.085 141.763 134.407 141.763C141.728 141.763 147.663 157.449 147.663 176.798C147.663 196.148 141.728 211.833 134.407 211.833Z" fill="white"/>
<path d="M142.252 353.597C139.682 353.597 136.977 353.326 134.407 352.92V173.417L207.723 293.401C191.761 330.33 168.359 353.597 142.252 353.597Z" fill="#126DFF"/>
<path d="M1 173H136V180H1V173Z" fill="#8DB9FF"/>
<path d="M133.189 176.798C133.189 178.692 133.73 180.18 134.407 180.18C135.083 180.18 135.624 178.692 135.624 176.798C135.624 174.904 135.083 173.417 134.407 173.417C133.73 173.417 133.189 174.904 133.189 176.798Z" fill="#8DB9FF"/>
<path d="M1.27553 180.234C0.603155 180.234 0.0580792 178.72 0.0580792 176.852C0.0580792 174.985 0.603155 173.47 1.27553 173.47C1.9479 173.47 2.49295 174.985 2.49295 176.852C2.49295 178.72 1.9479 180.234 1.27553 180.234Z" fill="#8DB9FF"/>
<path d="M44.5621 173.471C44.5621 173.471 16.9669 150.745 3.57512 154.397C-4.5411 156.562 4.25148 173.471 4.25148 173.471H44.5621Z" fill="#272643"/>
<path d="M44.5621 180.234C44.5621 180.234 16.9669 203.501 3.57512 199.713C-4.5411 197.413 4.25148 180.234 4.25148 180.234H44.5621Z" fill="#272643"/>
<path d="M44.4268 176.852C44.4268 176.852 16.8316 196.872 3.43984 193.626C-4.67638 191.597 4.11619 176.852 4.11619 176.852H44.4268Z" fill="#126DFF"/>
<path d="M130.078 175.446H119.121" stroke="white" stroke-width="0.75" stroke-miterlimit="10" stroke-linecap="round" stroke-linejoin="round"/>
<path d="M133.189 175.446H132.378" stroke="white" stroke-width="0.75" stroke-miterlimit="10" stroke-linecap="round" stroke-linejoin="round"/>
</svg>
